<svg xmlns="http://www.w3.org/2000/svg" version="1.1" xmlns:xlink="http://www.w3.org/1999/xlink" xmlns:svgjs="http://svgjs.dev/svgjs" width="2000" height="1500" viewBox="0 0 2000 1500"><rect width="2000" height="1500" fill="#ffffff"></rect><g transform="matrix(0.75,0,0,0.75,249.090909090909,665.3412627719384)"><svg viewBox="0 0 396 45" data-background-color="#ffffff" preserveAspectRatio="xMidYMid meet" height="227" width="2000" xmlns="http://www.w3.org/2000/svg" xmlns:xlink="http://www.w3.org/1999/xlink"><g id="tight-bounds" transform="matrix(1,0,0,1,0.2400000000000091,-0.12324126130530999)"><svg viewBox="0 0 395.52 45.24648252261061" height="45.24648252261061" width="395.52"><g><svg viewBox="0 0 395.52 45.24648252261061" height="45.24648252261061" width="395.52"><g><svg viewBox="0 0 395.52 45.24648252261061" height="45.24648252261061" width="395.52"><g id="textblocktransform"><svg viewBox="0 0 395.52 45.24648252261061" height="45.24648252261061" width="395.52" id="textblock"><g><svg viewBox="0 0 395.52 45.24648252261061" height="45.24648252261061" width="395.52"><g transform="matrix(1,0,0,1,0,0)"><svg width="395.52" viewBox="5.7 -37.1 409.07 46.8" height="45.24648252261061" data-palette-color="#0718c4"><path d="M39-35L42.05-35 42.05 0 38.5 0 38.5-28 24.75-4.45 23-4.45 9.25-27.85 9.25 0 5.7 0 5.7-35 8.75-35 23.95-9.05 39-35ZM61.9-26.5Q67.05-26.5 69.8-23.93 72.55-21.35 72.55-16.3L72.55-16.3 72.55 0 69.15 0 69.15-4.1Q67.95-2.05 65.62-0.9 63.3 0.25 60.1 0.25L60.1 0.25Q55.7 0.25 53.1-1.85 50.5-3.95 50.5-7.4L50.5-7.4Q50.5-10.75 52.92-12.8 55.35-14.85 60.65-14.85L60.65-14.85 69-14.85 69-16.45Q69-19.85 67.1-21.63 65.2-23.4 61.55-23.4L61.55-23.4Q59.05-23.4 56.75-22.58 54.45-21.75 52.8-20.3L52.8-20.3 51.2-22.95Q53.2-24.65 56-25.58 58.8-26.5 61.9-26.5L61.9-26.5ZM60.65-2.55Q63.65-2.55 65.8-3.93 67.95-5.3 69-7.9L69-7.9 69-12.2 60.75-12.2Q54-12.2 54-7.5L54-7.5Q54-5.2 55.75-3.88 57.5-2.55 60.65-2.55L60.65-2.55ZM85.59-21.15Q86.84-23.8 89.32-25.15 91.8-26.5 95.45-26.5L95.45-26.5 95.45-23.05 94.59-23.1Q90.45-23.1 88.09-20.55 85.75-18 85.75-13.4L85.75-13.4 85.75 0 82.2 0 82.2-26.3 85.59-26.3 85.59-21.15ZM122.19 0L111.59-13.2 105.39-7.5 105.39 0 101.84 0 101.84-37.1 105.39-37.1 105.39-11.95 121.09-26.3 125.49-26.3 114.24-15.55 126.54 0 122.19 0ZM153.79-13.15L153.74-12.05 131.74-12.05Q132.04-7.95 134.89-5.43 137.74-2.9 142.09-2.9L142.09-2.9Q144.54-2.9 146.59-3.78 148.64-4.65 150.14-6.35L150.14-6.35 152.14-4.05Q150.39-1.95 147.76-0.85 145.14 0.25 141.99 0.25L141.99 0.25Q137.94 0.25 134.81-1.48 131.69-3.2 129.94-6.25 128.19-9.3 128.19-13.15L128.19-13.15Q128.19-17 129.87-20.05 131.54-23.1 134.47-24.8 137.39-26.5 141.04-26.5L141.04-26.5Q144.69-26.5 147.59-24.8 150.49-23.1 152.14-20.08 153.79-17.05 153.79-13.15L153.79-13.15ZM141.04-23.45Q137.24-23.45 134.66-21.03 132.09-18.6 131.74-14.7L131.74-14.7 150.39-14.7Q150.04-18.6 147.47-21.03 144.89-23.45 141.04-23.45L141.04-23.45ZM173.64-4.15L174.89-1.6Q173.89-0.7 172.41-0.23 170.94 0.25 169.34 0.25L169.34 0.25Q165.64 0.25 163.64-1.75 161.64-3.75 161.64-7.4L161.64-7.4 161.64-23.3 156.94-23.3 156.94-26.3 161.64-26.3 161.64-32.05 165.19-32.05 165.19-26.3 173.19-26.3 173.19-23.3 165.19-23.3 165.19-7.6Q165.19-5.25 166.36-4.03 167.54-2.8 169.74-2.8L169.74-2.8Q170.84-2.8 171.86-3.15 172.89-3.5 173.64-4.15L173.64-4.15ZM191.74 0.3Q187.84 0.3 184.26-0.95 180.69-2.2 178.74-4.25L178.74-4.25 180.19-7.1Q182.09-5.2 185.24-4.03 188.39-2.85 191.74-2.85L191.74-2.85Q196.44-2.85 198.79-4.58 201.14-6.3 201.14-9.05L201.14-9.05Q201.14-11.15 199.86-12.4 198.59-13.65 196.74-14.33 194.89-15 191.59-15.8L191.59-15.8Q187.64-16.8 185.29-17.73 182.94-18.65 181.26-20.55 179.59-22.45 179.59-25.7L179.59-25.7Q179.59-28.35 180.99-30.53 182.39-32.7 185.29-34 188.19-35.3 192.49-35.3L192.49-35.3Q195.49-35.3 198.36-34.48 201.24-33.65 203.34-32.2L203.34-32.2 202.09-29.25Q199.89-30.7 197.39-31.43 194.89-32.15 192.49-32.15L192.49-32.15Q187.89-32.15 185.56-30.38 183.24-28.6 183.24-25.8L183.24-25.8Q183.24-23.7 184.51-22.43 185.79-21.15 187.71-20.48 189.64-19.8 192.89-19L192.89-19Q196.74-18.05 199.11-17.13 201.49-16.2 203.14-14.33 204.79-12.45 204.79-9.25L204.79-9.25Q204.79-6.6 203.36-4.42 201.94-2.25 198.99-0.98 196.04 0.3 191.74 0.3L191.74 0.3ZM225.63-26.5Q229.33-26.5 232.33-24.83 235.33-23.15 237.03-20.1 238.73-17.05 238.73-13.15L238.73-13.15Q238.73-9.2 237.03-6.15 235.33-3.1 232.36-1.43 229.38 0.25 225.63 0.25L225.63 0.25Q222.43 0.25 219.86-1.07 217.28-2.4 215.63-4.95L215.63-4.95 215.63 9.7 212.08 9.7 212.08-26.3 215.48-26.3 215.48-21.1Q217.08-23.7 219.71-25.1 222.33-26.5 225.63-26.5L225.63-26.5ZM225.38-2.9Q228.13-2.9 230.38-4.17 232.63-5.45 233.91-7.8 235.18-10.15 235.18-13.15L235.18-13.15Q235.18-16.15 233.91-18.48 232.63-20.8 230.38-22.1 228.13-23.4 225.38-23.4L225.38-23.4Q222.58-23.4 220.36-22.1 218.13-20.8 216.86-18.48 215.58-16.15 215.58-13.15L215.58-13.15Q215.58-10.15 216.86-7.8 218.13-5.45 220.36-4.17 222.58-2.9 225.38-2.9L225.38-2.9ZM255.03-26.5Q260.18-26.5 262.93-23.93 265.68-21.35 265.68-16.3L265.68-16.3 265.68 0 262.28 0 262.28-4.1Q261.08-2.05 258.75-0.9 256.43 0.25 253.23 0.25L253.23 0.25Q248.83 0.25 246.23-1.85 243.63-3.95 243.63-7.4L243.63-7.4Q243.63-10.75 246.06-12.8 248.48-14.85 253.78-14.85L253.78-14.85 262.13-14.85 262.13-16.45Q262.13-19.85 260.23-21.63 258.33-23.4 254.68-23.4L254.68-23.4Q252.18-23.4 249.88-22.58 247.58-21.75 245.93-20.3L245.93-20.3 244.33-22.95Q246.33-24.65 249.13-25.58 251.93-26.5 255.03-26.5L255.03-26.5ZM253.78-2.55Q256.78-2.55 258.93-3.93 261.08-5.3 262.13-7.9L262.13-7.9 262.13-12.2 253.88-12.2Q247.13-12.2 247.13-7.5L247.13-7.5Q247.13-5.2 248.88-3.88 250.63-2.55 253.78-2.55L253.78-2.55ZM278.73-21.15Q279.98-23.8 282.45-25.15 284.93-26.5 288.58-26.5L288.58-26.5 288.58-23.05 287.73-23.1Q283.58-23.1 281.23-20.55 278.88-18 278.88-13.4L278.88-13.4 278.88 0 275.33 0 275.33-26.3 278.73-26.3 278.73-21.15ZM315.33 0L304.73-13.2 298.53-7.5 298.53 0 294.98 0 294.98-37.1 298.53-37.1 298.53-11.95 314.23-26.3 318.63-26.3 307.38-15.55 319.68 0 315.33 0ZM364.47-35L368.12-35 368.12 0 364.47 0 364.47-16.15 342.57-16.15 342.57 0 338.87 0 338.87-35 342.57-35 342.57-19.4 364.47-19.4 364.47-35ZM412.97 0.8L414.77 2.95Q413.17 4.9 410.99 5.93 408.82 6.95 406.27 6.95L406.27 6.95Q403.17 6.95 400.39 5.43 397.62 3.9 394.17 0.3L394.17 0.3Q389.12 0.15 385.07-2.2 381.02-4.55 378.72-8.55 376.42-12.55 376.42-17.5L376.42-17.5Q376.42-22.55 378.79-26.6 381.17-30.65 385.39-32.98 389.62-35.3 394.82-35.3L394.82-35.3Q400.02-35.3 404.19-33 408.37-30.7 410.77-26.63 413.17-22.55 413.17-17.5L413.17-17.5Q413.17-13.1 411.34-9.43 409.52-5.75 406.24-3.3 402.97-0.85 398.72-0.05L398.72-0.05Q402.57 4 406.32 4L406.32 4Q410.22 4 412.97 0.8L412.97 0.8ZM380.07-17.5Q380.07-13.4 381.99-10.1 383.92-6.8 387.29-4.9 390.67-3 394.82-3L394.82-3Q398.97-3 402.32-4.9 405.67-6.8 407.57-10.1 409.47-13.4 409.47-17.5L409.47-17.5Q409.47-21.6 407.57-24.9 405.67-28.2 402.32-30.1 398.97-32 394.82-32L394.82-32Q390.67-32 387.29-30.1 383.92-28.2 381.99-24.9 380.07-21.6 380.07-17.5L380.07-17.5Z" opacity="1" transform="matrix(1,0,0,1,0,0)" fill="#0718c4" class="wordmark-text-0" data-fill-palette-color="primary" id="text-0"></path></svg></g></svg></g></svg></g></svg></g><g></g></svg></g><defs></defs></svg><rect width="395.52" height="45.24648252261061" fill="none" stroke="none" visibility="hidden"></rect></g></svg></g></svg>